<svg width="16" height="16" viewBox="0 0 16 16" fill="none" xmlns="http://www.w3.org/2000/svg">
<path d="M14.9059 15.1619C14.6109 14.7284 14.4117 14.2906 14.3257 13.8073C14.1859 13.0221 14.3596 12.199 14.7312 11.1975C14.7359 11.1848 14.7412 11.1723 14.7469 11.16L15.1443 10.3085C15.496 9.50174 15.5 8.85489 15.5 8C15.5 3.87614 12.1239 0.5 8 0.5C3.87614 0.5 0.5 3.87614 0.5 8C0.5 12.1239 3.87614 15.5 8 15.5C9.20924 15.5 10.3836 15.1816 11.4289 14.6943L11.9695 14.4134C12.1258 14.3322 12.3134 14.3393 12.4632 14.432L14.9059 15.1619ZM14.9059 15.1619C14.334 15.1146 13.8305 14.9903 13.4286 14.8556C13.118 14.7515 12.8711 14.6423 12.7041 14.5604C12.6207 14.5195 12.5575 14.4856 12.5166 14.4628C12.4962 14.4514 12.4814 14.4428 12.4724 14.4375L12.4634 14.4322L14.9059 15.1619Z" stroke="#467BE3" fill="#467BE3" stroke-miterlimit="10" stroke-linecap="round" stroke-linejoin="round"/>
</svg>
