<svg width="18" height="16" viewBox="0 0 18 16" fill="none" xmlns="http://www.w3.org/2000/svg">
<path d="M5.88889 3.55551C4.62124 4.17978 3.47902 5.04743 2.28622 6.46832L1 7.99996L2.28622 9.5316C5.35653 13.1891 8.77164 14.2075 12.034 12.5868M9 2.66663C11.2931 2.66663 13.5862 3.93383 15.7138 6.46832L17 7.99996L15.7138 9.5316C15.2606 10.0714 14.7999 10.5537 14.3333 10.9786" stroke="#9DA7B0" stroke-linecap="round"/>
<path d="M7.52544 5.77778C6.80686 6.25556 6.33335 7.07244 6.33335 8C6.33335 9.4728 7.52722 10.6667 9.00002 10.6667C9.58491 10.6667 9.89371 10.5415 10.3334 10.2222M10.3334 5.69013C10.4926 5.78222 10.6415 5.8904 10.7778 6.01236C11.108 6.30791 11.3642 6.68462 11.515 7.11111C11.5792 7.29298 11.6244 7.48391 11.6478 7.68142M4.5 1L14 15" stroke="#9DA7B0" stroke-linecap="round"/>
</svg>
