<svg width="16" height="16" viewBox="0 0 16 16" fill="none" xmlns="http://www.w3.org/2000/svg">
<circle cx="8" cy="8" r="7.5" stroke="#72808E" stroke-opacity="0.3"/>
<path d="M7.37988 9.70117C7.37988 9.22493 7.43896 8.84538 7.55713 8.5625C7.67529 8.27962 7.90804 7.96989 8.25537 7.6333C8.60628 7.29313 8.82829 7.05143 8.92139 6.9082C9.06462 6.68978 9.13623 6.45345 9.13623 6.19922C9.13623 5.86263 9.05208 5.60661 8.88379 5.43115C8.71908 5.25212 8.47559 5.1626 8.15332 5.1626C7.84538 5.1626 7.59652 5.25033 7.40674 5.42578C7.22054 5.59766 7.12744 5.83219 7.12744 6.12939H5.82227C5.82943 5.49561 6.04427 4.9943 6.4668 4.62549C6.8929 4.25667 7.45508 4.07227 8.15332 4.07227C8.87305 4.07227 9.43343 4.25488 9.83447 4.62012C10.2391 4.98535 10.4414 5.49561 10.4414 6.15088C10.4414 6.73454 10.1693 7.30924 9.625 7.875L8.96436 8.5249C8.72803 8.79346 8.60628 9.18555 8.59912 9.70117H7.37988ZM7.28857 11.3716C7.28857 11.1603 7.35482 10.9902 7.4873 10.8613C7.61979 10.7288 7.79883 10.6626 8.02441 10.6626C8.25358 10.6626 8.43441 10.7306 8.56689 10.8667C8.69938 10.9992 8.76562 11.1675 8.76562 11.3716C8.76562 11.5685 8.70117 11.7332 8.57227 11.8657C8.44336 11.9982 8.26074 12.0645 8.02441 12.0645C7.78809 12.0645 7.60547 11.9982 7.47656 11.8657C7.35124 11.7332 7.28857 11.5685 7.28857 11.3716Z" fill="#9DA7B0"/>
</svg>
