<svg width="36" height="36" viewBox="0 0 36 36" fill="none" xmlns="http://www.w3.org/2000/svg">
  <rect width="36" height="36" rx="18" fill="#72808E" fill-opacity="0.15"/>
  <mask id="mask0" mask-type="alpha" maskUnits="userSpaceOnUse" x="9" y="4" width="17" height="27">
    <rect x="9" y="4" width="17" height="26.1538" fill="#C4C4C4"/>
  </mask>
  <g mask="url(#mask0)">
    <path opacity="0.9" fill-rule="evenodd" clip-rule="evenodd" d="M15.8794 17.1055C15.6201 16.9645 15.3169 16.9031 15.0393 17.0031C12.6839 17.8518 11 20.1062 11 22.754C11 23.7183 11.7817 24.5 12.746 24.5H23.254C24.2183 24.5 25 23.7183 25 22.754C25 20.1062 23.3161 17.8518 20.9607 17.0031C20.6831 16.9031 20.3799 16.9645 20.1206 17.1055C19.4905 17.4482 18.7692 17.6431 18 17.6431C17.2308 17.6431 16.5095 17.4482 15.8794 17.1055ZM17.9702 16.643C17.9801 16.6431 17.9901 16.6431 18 16.6431C18.0099 16.6431 18.0199 16.6431 18.0298 16.643H17.9702Z" fill="#72808E"/>
    <ellipse opacity="0.6" cx="17.9995" cy="13.0714" rx="3.5" ry="3.57135" fill="#9DA7B0"/>
  </g>
</svg>
